name ./resultDataOpenSim/trcMotMarkerGrf/sub06/grf-04-03.mot
datacolumns 19
datarows 20
range 1.02000000 1.09600000
endheader

                time	     ground_force_vx	     ground_force_vy	     ground_force_vz	     ground_force_px	     ground_force_py	     ground_force_pz	   l_ground_force_vx	   l_ground_force_vy	   l_ground_force_vz	   l_ground_force_px	   l_ground_force_py	   l_ground_force_pz	     ground_torque_x	     ground_torque_y	     ground_torque_z	   l_ground_torque_x	   l_ground_torque_y	   l_ground_torque_z	
          1.02000000	          0.00000000	          0.00000000	          0.00000000	          0.00000000	          0.00000000	          0.00000000	         57.97062209	        471.11430287	         25.62824573	          0.06038413	         -0.07500000	         -0.01453407	          0.00000000	          0.00000000	          0.00000000	          0.00000000	         -0.93655393	          0.00000000	
          1.02400000	          0.00000000	          0.00000000	          0.00000000	          0.00000000	          0.00000000	          0.00000000	         61.87631828	        492.43233309	         27.32354744	          0.06089342	         -0.07500000	         -0.01418416	          0.00000000	          0.00000000	          0.00000000	          0.00000000	         -0.98412706	          0.00000000	
          1.02800000	          0.00000000	          0.00000000	          0.00000000	          0.00000000	          0.00000000	          0.00000000	         66.08511017	        514.46061236	         28.93246346	          0.06138603	         -0.07500000	         -0.01383674	          0.00000000	          0.00000000	          0.00000000	          0.00000000	         -1.04162554	          0.00000000	
          1.03200000	          0.00000000	          0.00000000	          0.00000000	          0.00000000	          0.00000000	          0.00000000	         70.61120173	        536.86376562	         30.39988317	          0.06184504	         -0.07500000	         -0.01352321	          0.00000000	          0.00000000	          0.00000000	          0.00000000	         -1.11175361	          0.00000000	
          1.03600000	          0.00000000	          0.00000000	          0.00000000	          0.00000000	          0.00000000	          0.00000000	         75.46567211	        559.35561549	         31.66037720	          0.06229361	         -0.07500000	         -0.01323687	          0.00000000	          0.00000000	          0.00000000	          0.00000000	         -1.19785259	          0.00000000	
          1.04000000	          0.00000000	          0.00000000	          0.00000000	          0.00000000	          0.00000000	          0.00000000	         80.64594298	        581.70564542	         32.64114881	          0.06276751	         -0.07500000	         -0.01294526	          0.00000000	          0.00000000	          0.00000000	          0.00000000	         -1.30323636	          0.00000000	
          1.04400000	          0.00000000	          0.00000000	          0.00000000	          0.00000000	          0.00000000	          0.00000000	         86.13966620	        603.69703735	         33.28675544	          0.06328160	         -0.07500000	         -0.01262460	          0.00000000	          0.00000000	          0.00000000	          0.00000000	         -1.43028108	          0.00000000	
          1.04800000	          0.00000000	          0.00000000	          0.00000000	          0.00000000	          0.00000000	          0.00000000	         91.93646960	        625.09529441	         33.58702398	          0.06383127	         -0.07500000	         -0.01227193	          0.00000000	          0.00000000	          0.00000000	          0.00000000	         -1.57960405	          0.00000000	
          1.05200000	          0.00000000	          0.00000000	          0.00000000	          0.00000000	          0.00000000	          0.00000000	         98.02775830	        645.67430927	         33.57475310	          0.06440696	         -0.07500000	         -0.01189450	          0.00000000	          0.00000000	          0.00000000	          0.00000000	         -1.74962526	          0.00000000	
          1.05600000	          0.00000000	          0.00000000	          0.00000000	          0.00000000	          0.00000000	          0.00000000	        104.39330875	        665.26990857	         33.29256435	          0.06499921	         -0.07500000	         -0.01149425	          0.00000000	          0.00000000	          0.00000000	          0.00000000	         -1.93658834	          0.00000000	
          1.06000000	          0.00000000	          0.00000000	          0.00000000	          0.00000000	          0.00000000	          0.00000000	        110.99182911	        683.77595767	         32.76224013	          0.06561105	         -0.07500000	         -0.01106020	          0.00000000	          0.00000000	          0.00000000	          0.00000000	         -2.13489455	          0.00000000	
          1.06400000	          0.00000000	          0.00000000	          0.00000000	          0.00000000	          0.00000000	          0.00000000	        117.76844026	        701.09388376	         31.99140233	          0.06626029	         -0.07500000	         -0.01058065	          0.00000000	          0.00000000	          0.00000000	          0.00000000	         -2.33755388	          0.00000000	
          1.06800000	          0.00000000	          0.00000000	          0.00000000	          0.00000000	          0.00000000	          0.00000000	        124.67463279	        717.10768716	         31.01029974	          0.06695606	         -0.07500000	         -0.01006180	          0.00000000	          0.00000000	          0.00000000	          0.00000000	         -2.53670942	          0.00000000	
          1.07200000	          0.00000000	          0.00000000	          0.00000000	          0.00000000	          0.00000000	          0.00000000	        131.68616532	        731.67056972	         29.88883716	          0.06769492	         -0.07500000	         -0.00952179	          0.00000000	          0.00000000	          0.00000000	          0.00000000	         -2.72434161	          0.00000000	
          1.07600000	          0.00000000	          0.00000000	          0.00000000	          0.00000000	          0.00000000	          0.00000000	        138.80168645	        744.59271012	         28.71039220	          0.06847355	         -0.07500000	         -0.00897351	          0.00000000	          0.00000000	          0.00000000	          0.00000000	         -2.89318245	          0.00000000	
          1.08000000	          0.00000000	          0.00000000	          0.00000000	          0.00000000	          0.00000000	          0.00000000	        146.02329551	        755.66440445	         27.53212825	          0.06927884	         -0.07500000	         -0.00842666	          0.00000000	          0.00000000	          0.00000000	          0.00000000	         -3.03762751	          0.00000000	
          1.08400000	          0.00000000	          0.00000000	          0.00000000	          0.00000000	          0.00000000	          0.00000000	        153.34269086	        764.66681222	         26.36448019	          0.07008113	         -0.07500000	         -0.00789417	          0.00000000	          0.00000000	          0.00000000	          0.00000000	         -3.15430011	          0.00000000	
          1.08800000	          0.00000000	          0.00000000	          0.00000000	          0.00000000	          0.00000000	          0.00000000	        160.73580132	        771.33293532	         25.17927244	          0.07083534	         -0.07500000	         -0.00739721	          0.00000000	          0.00000000	          0.00000000	          0.00000000	         -3.24204029	          0.00000000	
          1.09200000	          0.00000000	          0.00000000	          0.00000000	          0.00000000	          0.00000000	          0.00000000	        168.14675659	        775.35177849	         23.93723281	          0.07150262	         -0.07500000	         -0.00695665	          0.00000000	          0.00000000	          0.00000000	          0.00000000	         -3.30137657	          0.00000000	
          1.09600000	          0.00000000	          0.00000000	          0.00000000	          0.00000000	          0.00000000	          0.00000000	        175.47309648	        776.45600562	         22.61612550	          0.07208906	         -0.07500000	         -0.00657020	          0.00000000	          0.00000000	          0.00000000	          0.00000000	         -3.33378692	          0.00000000	
